# Blender v2.79 (sub 0) OBJ File: ''
# www.blender.org
o Cube
v -0.166279 -0.250000 -2.000000
v -0.166279 -0.250000 2.000000
v -0.168279 -0.250000 2.000000
v -0.168279 -0.250000 -2.000001
v -0.166279 0.250000 -1.999999
v -0.166279 0.250000 2.000001
v -0.168279 0.250000 1.999999
v -0.168279 0.250000 -2.000000
vn 0.0000 -1.0000 0.0000
vn 0.0000 1.0000 0.0000
vn 1.0000 0.0000 0.0000
vn 0.0000 -0.0000 1.0000
vn -1.0000 -0.0000 0.0000
vn 0.0006 0.0000 -1.0000
vn -0.0010 0.0000 1.0000
vn 0.0005 0.0000 -1.0000
s off
f 2/0/1 4/0/1 1/0/1
f 8/0/2 6/0/2 5/0/2
f 5/0/3 2/0/3 1/0/3
f 6/0/4 3/0/4 2/0/4
f 3/0/5 8/0/5 4/0/5
f 1/0/6 8/0/6 5/0/6
f 2/0/1 3/0/1 4/0/1
f 8/0/2 7/0/2 6/0/2
f 5/0/3 6/0/3 2/0/3
f 6/0/7 7/0/7 3/0/7
f 3/0/5 7/0/5 8/0/5
f 1/0/8 4/0/8 8/0/8
